<svg xmlns="http://www.w3.org/2000/svg" width="31" height="42" viewBox="0 0 31 42" fill="none">
  <path fill-rule="evenodd" clip-rule="evenodd" d="M11.8361 11.2129H9.80392C9.03081 11.2129 8.40336 11.8403 8.40336 12.6134C8.40336 13.3866 9.03081 14.014 9.80392 14.014H10.5C8.37535 16.0686 5.7633 18.5098 3.70588 21.2451C1.54622 24.1176 0 27.3095 0 30.7031C0 33.5686 0.679271 35.7199 1.81793 37.3417C4.37815 40.9846 9.46779 42 15.4062 42C21.3445 42 26.4342 40.9846 28.993 37.3417C30.1317 35.7199 30.8123 33.5686 30.8123 30.7031C30.8123 27.3081 29.2633 24.1134 27.1022 21.2395C25.0476 18.5056 22.437 16.0672 20.3137 14.014H21.0084C21.7815 14.014 22.409 13.3866 22.409 12.6134C22.409 11.8403 21.7815 11.2129 21.0084 11.2129H18.9664L21.5728 6.11344C22.2381 4.81092 22.1779 3.2563 21.4146 2.0084C20.6513 0.760504 19.2941 0 17.8305 0H12.9692C11.507 0 10.1499 0.760504 9.38515 2.0084C8.62185 3.2563 8.56303 4.81232 9.22829 6.11485L11.8361 11.2129ZM13.9678 19.6078H13.9636C11.6443 19.6078 9.7619 21.4902 9.7619 23.8095C9.7619 26.1289 11.6443 28.0112 13.9636 28.0112H16.7647C17.5378 28.0112 18.1653 28.6387 18.1653 29.4118C18.1653 30.1849 17.5378 30.8123 16.7647 30.8123H12.563C11.7899 30.8123 11.1625 31.4398 11.1625 32.2129C11.1625 32.986 11.7899 33.6134 12.563 33.6134H13.9678V35.014C13.9678 35.7871 14.5966 36.4146 15.3683 36.4146C16.1415 36.4146 16.7689 35.7871 16.7689 35.014V33.6134C19.0868 33.6106 20.9664 31.7297 20.9664 29.4118C20.9664 27.0924 19.084 25.2101 16.7647 25.2101H13.9636C13.1905 25.2101 12.563 24.5826 12.563 23.8095C12.563 23.0364 13.1905 22.409 13.9636 22.409H18.1653C18.9384 22.409 19.5658 21.7815 19.5658 21.0084C19.5658 20.2353 18.9384 19.6078 18.1653 19.6078H16.7689V18.2073C16.7689 17.4342 16.1415 16.8067 15.3683 16.8067C14.5966 16.8067 13.9678 17.4342 13.9678 18.2073V19.6078Z" fill="black"/>
</svg>