<svg xmlns="http://www.w3.org/2000/svg" width="24" height="24" viewBox="0 0 24 24" fill="none">
  <path d="M3.12444 17.2633C2.78371 17.0691 2.5003 16.7883 2.30286 16.4494C2.10542 16.1106 2.00095 15.7255 2 15.3333V4.22222C2 3 3 2 4.22222 2H15.3333C16.1667 2 16.62 2.42778 17 3.11111M6.44444 9.40778C6.44444 8.62185 6.75665 7.86812 7.31238 7.31238C7.86812 6.75665 8.62185 6.44444 9.40778 6.44444H19.0367C19.4258 6.44444 19.8112 6.52109 20.1707 6.67002C20.5302 6.81894 20.8569 7.03721 21.1321 7.31238C21.4072 7.58756 21.6255 7.91423 21.7744 8.27376C21.9234 8.63329 22 9.01863 22 9.40778V19.0367C22 19.4258 21.9234 19.8112 21.7744 20.1707C21.6255 20.5302 21.4072 20.8569 21.1321 21.1321C20.8569 21.4072 20.5302 21.6255 20.1707 21.7744C19.8112 21.9234 19.4258 22 19.0367 22H9.40778C9.01863 22 8.63329 21.9234 8.27376 21.7744C7.91423 21.6255 7.58756 21.4072 7.31238 21.1321C7.03721 20.8569 6.81894 20.5302 6.67002 20.1707C6.52109 19.8112 6.44444 19.4258 6.44444 19.0367V9.40778Z" stroke="black" stroke-width="2.5" stroke-linecap="round" stroke-linejoin="round"/>
</svg>