<svg xmlns="http://www.w3.org/2000/svg" width="37" height="42" viewBox="0 0 37 42" fill="none">
  <path fill-rule="evenodd" clip-rule="evenodd" d="M13.6043 2.37391C11.0935 3.69783 9.03913 4.79348 9.03913 4.83913C9.03913 4.97609 15.0652 7.98913 15.2478 7.98913C15.3391 7.98913 16.0696 7.66957 16.8 7.2587L18.1696 6.52826L19.6761 7.30435L21.1826 8.08044L23.6478 6.98478C27.3913 5.29565 27.7565 5.11304 27.7109 5.06739C27.6196 4.97609 26.2957 4.24565 22.6435 2.37391C20.9087 1.46087 19.1739 0.547826 18.8543 0.365217C18.5804 0.136957 18.3065 0 18.2152 0C18.1696 0 16.0696 1.05 13.6043 2.37391ZM2.60217 8.03478L0 9.40435V15.2935C0 18.5348 0.0456522 21.1826 0.0913044 21.1826C0.136957 21.1826 1.41522 20.6348 2.92174 19.95L5.70652 18.7174V12.5087L7.07609 13.2391C8.12609 13.787 9.17609 14.3804 10.2261 14.9283L12.0065 15.887L12.7826 15.5217C13.2848 15.2935 13.787 15.0652 14.2891 14.837C14.6543 14.6543 15.613 14.2435 16.3891 13.8783C17.1652 13.5587 17.85 13.1935 17.9413 13.1022C18.0783 13.0109 16.4348 12.0978 11.9152 9.76957C8.4913 8.03478 5.61522 6.57391 5.47826 6.61957C5.3413 6.71087 4.06304 7.30435 2.60217 8.03478ZM28.2587 8.44565C26.4783 9.26739 25.0174 9.95217 25.0174 9.95217C25.0174 9.99783 25.9761 10.5457 27.163 11.2304C28.35 11.9152 29.3087 12.463 29.3087 12.5087C29.3087 12.5543 28.2587 13.0565 26.9804 13.65C25.7022 14.2435 22.4609 15.7043 19.813 16.8913L10.8652 20.9543C8.62826 21.9587 6.57391 22.8717 6.34565 23.0087C1.73478 25.063 0.456522 25.6565 0.273913 25.7478C0.0913044 25.8391 0.0456522 26.4326 0.0456522 29.3543L0 32.8239L2.32826 34.0109L4.65652 35.1978L7.89783 33.737C9.67826 32.9152 11.1391 32.2304 11.1391 32.1848C11.1391 32.1391 10.8196 31.9109 10.4087 31.7283C9.99783 31.5 9.17609 31.0435 8.58261 30.6783C7.98913 30.313 7.35 29.9935 7.21304 29.9478C7.07609 29.9022 6.98478 29.8109 6.98478 29.7652C6.98478 29.7196 8.4 29.0348 10.1348 28.2587C13.513 26.7522 16.0696 25.6109 21.6391 23.1C24.1043 21.9587 26.6152 20.863 29.0804 19.7217C31.2717 18.7174 33.7826 17.5761 34.6957 17.1652L36.3848 16.3891L36.4304 12.8739L36.4761 9.3587L34.1022 8.12609C32.8239 7.4413 31.6826 6.89348 31.637 6.93913C31.5 6.98478 29.9935 7.62391 28.2587 8.44565ZM35.7 21.0913C35.3348 21.2739 34.65 21.5935 34.1935 21.7761C33.6913 22.0043 32.7783 22.4152 32.1391 22.7348L30.9065 23.2826L30.8609 26.387C30.8609 28.0761 30.7696 29.4457 30.7239 29.4457C30.587 29.4457 28.35 28.3043 26.1587 27.1174C24.5609 26.25 24.4696 26.2043 24.0587 26.4326C23.8304 26.5239 22.5522 27.1174 21.1826 27.7109C19.813 28.3043 18.6261 28.8522 18.5804 28.8978C18.5348 28.9435 21.2739 30.45 24.7435 32.2304L30.9978 35.4717L33.6457 34.1022C35.1065 33.3261 36.3848 32.6413 36.4304 32.55C36.5674 32.3674 36.5674 20.7717 36.4304 20.8174C36.3848 20.8174 36.0196 20.9543 35.7 21.0913ZM20.9087 34.6957C20.4522 34.8783 19.9957 35.1065 19.5391 35.2891C18.1239 35.8826 18.3978 35.9283 16.7543 35.1065C15.6587 34.5587 15.1565 34.3761 14.9739 34.4674C14.837 34.513 13.4674 35.1522 12.0065 35.7913C10.5457 36.4761 9.26739 37.0239 9.22174 37.0239C8.58261 37.0239 9.63261 37.663 13.6043 39.6717L18.2152 42L20.1783 41.0413C21.2739 40.4935 23.4196 39.4435 25.0174 38.6674C26.6152 37.8913 27.8935 37.2522 27.8478 37.2065C27.8022 37.1609 26.4783 36.5217 24.8804 35.7L22.0043 34.2391L20.9087 34.6957Z" fill="black"/>
</svg>