<svg xmlns="http://www.w3.org/2000/svg" width="44" height="36" viewBox="0 0 44 36" fill="none">
  <path d="M40.1466 0.14711L1.122 15.2485C1.09878 15.2574 1.07627 15.2681 1.05467 15.2804C0.738215 15.4597 -1.47022 16.8105 1.64381 18.0216L1.67579 18.0334L10.9682 21.0355C11.0391 21.0585 11.1142 21.0658 11.1882 21.0568C11.2622 21.0478 11.3333 21.0227 11.3966 20.9833L34.4446 6.60324C34.5011 6.56797 34.564 6.54423 34.6298 6.53339C34.9504 6.48036 35.8737 6.38105 35.2896 7.12253C34.6289 7.96416 18.8863 22.0715 17.139 23.6361C17.0383 23.7266 16.9759 23.8521 16.9648 23.9871L16.2023 33.0767C16.2022 33.1692 16.2237 33.2606 16.265 33.3434C16.3064 33.4262 16.3664 33.4983 16.4405 33.5539C16.5455 33.62 16.6691 33.6507 16.7929 33.6413C16.9167 33.6319 17.0342 33.583 17.1281 33.5017L22.6492 28.5672C22.7364 28.4893 22.8477 28.4436 22.9645 28.4376C23.0813 28.4316 23.1966 28.4658 23.2913 28.5344L32.9238 35.5283L32.9549 35.5494C33.188 35.6933 35.7062 37.1586 36.4334 33.8863L43.0822 2.27054C43.0915 2.17038 43.1815 1.06953 42.3946 0.418956C41.5681 -0.26108 40.3983 0.0823046 40.2224 0.119336C40.1964 0.126559 40.1711 0.135847 40.1466 0.14711Z" fill="black"/>
</svg>