<svg xmlns="http://www.w3.org/2000/svg" width="36" height="36" viewBox="0 0 36 36" fill="none">
  <path d="M10.5327 0C10.8065 0.000114571 11.0774 0.0564443 11.3285 0.1655C11.5796 0.274556 11.8057 0.434015 11.9927 0.634L12.1447 0.818L20.6927 12.474L32.5847 0.586C32.9446 0.227304 33.4276 0.019053 33.9355 0.00354385C34.4434 -0.0119653 34.9381 0.16643 35.3193 0.502498C35.7004 0.838565 35.9393 1.3071 35.9875 1.81295C36.0357 2.31879 35.8895 2.82402 35.5787 3.226L35.4127 3.414L23.0867 15.738L35.6107 32.818C35.8181 33.101 35.9474 33.4337 35.9855 33.7825C36.0237 34.1312 35.9695 34.484 35.8282 34.8051C35.687 35.1263 35.4637 35.4047 35.1808 35.6124C34.898 35.82 34.5655 35.9495 34.2167 35.988L33.9987 36H25.4647C25.1909 35.9999 24.9201 35.9436 24.6689 35.8345C24.4178 35.7254 24.1917 35.566 24.0047 35.366L23.8527 35.182L15.3007 23.524L3.4127 35.414C3.05279 35.7727 2.56983 35.9809 2.06193 35.9965C1.55403 36.012 1.05927 35.8336 0.678144 35.4975C0.297013 35.1614 0.0580907 34.6929 0.00990349 34.187C-0.0382837 33.6812 0.107878 33.176 0.418701 32.774L0.584701 32.586L12.9067 20.26L0.386701 3.182C0.17932 2.89896 0.0500515 2.56635 0.0118743 2.21755C-0.0263029 1.86875 0.0279551 1.51605 0.169201 1.19485C0.310446 0.873654 0.533708 0.595269 0.816569 0.387648C1.09943 0.180026 1.43194 0.0504741 1.7807 0.0120001L1.9987 0H10.5327Z" fill="black"/>
</svg>